<?xml version="1.0" encoding="utf-8" ?>	<!-- Generator: Assembly 2.2 - http://assemblyapp.co -->	<svg version="1.1" xmlns="http://www.w3.org/2000/svg" xmlns:xlink="http://www.w3.org/1999/xlink" width="2048.00" height="2048.00" viewBox="0 0 2048.0 2048.0">		<g id="document" transform="matrix(1,0,0,1,1024.0,1024.0)">			<path d="M-287.588,-104.723 C-287.588,-111.81 -290.069,-117.953 -295.031,-123.151 C-300.228,-128.112 -306.371,-130.593 -313.459,-130.593 C-348.426,-130.593 -374.651,-130.593 -392.134,-130.593 C-399.222,-130.593 -405.364,-128.112 -410.562,-123.151 C-415.524,-117.953 -418.004,-111.81 -418.004,-104.723 C-418.004,-111.81 -420.603,-117.953 -425.801,-123.151 C-430.763,-128.112 -436.905,-130.593 -444.229,-130.593 C-479.196,-130.593 -505.303,-130.593 -522.55,-130.593 C-529.874,-130.593 -536.017,-128.112 -540.978,-123.151 C-546.176,-117.953 -548.775,-111.81 -548.775,-104.723 C-548.775,-72.1186 -548.775,-43.5311 -548.775,-18.9599 C-548.775,5.37493 -548.775,25.6934 -548.775,41.9954 C-548.775,81.4509 -548.775,110.984 -548.775,130.593 C-525.621,130.593 -508.256,130.593 -496.679,130.593 C-496.679,37.7427 -496.679,-31.9543 -496.679,-78.4977 C-473.289,-78.4977 -455.806,-78.4977 -444.229,-78.4977 C-444.229,14.3528 -444.229,84.0498 -444.229,130.593 C-421.076,130.593 -403.711,130.593 -392.134,130.593 C-392.134,37.7427 -392.134,-31.9543 -392.134,-78.4977 C-368.744,-78.4977 -351.261,-78.4977 -339.684,-78.4977 C-339.684,14.3528 -339.684,84.0498 -339.684,130.593 C-316.53,130.593 -299.165,130.593 -287.588,130.593 C-287.588,26.1659 -287.588,-52.2727 -287.588,-104.723 Z M-78.4977,130.593 C-78.4977,26.1659 -78.4977,-52.2727 -78.4977,-104.723 C-78.4977,-111.81 -80.9784,-117.953 -85.9399,-123.151 C-91.1376,-128.112 -97.2804,-130.593 -104.368,-130.593 C-150.912,-130.593 -185.76,-130.593 -208.914,-130.593 C-216.238,-130.593 -222.38,-128.112 -227.342,-123.151 C-232.54,-117.953 -235.139,-111.81 -235.139,-104.723 C-235.139,-72.1186 -235.139,-43.5311 -235.139,-18.9599 C-235.139,5.37493 -235.139,25.6934 -235.139,41.9954 C-235.139,81.4509 -235.139,110.984 -235.139,130.593 C-211.985,130.593 -194.62,130.593 -183.043,130.593 C-183.043,84.0498 -183.043,49.2013 -183.043,26.0478 C-159.653,26.0478 -142.17,26.0478 -130.593,26.0478 C-130.593,72.5911 -130.593,107.44 -130.593,130.593 C-107.44,130.593 -90.0744,130.593 -78.4977,130.593 Z M-130.593,-26.0478 C-153.747,-26.0478 -171.23,-26.0478 -183.043,-26.0478 C-183.043,-49.4376 -183.043,-66.9209 -183.043,-78.4977 C-159.653,-78.4977 -142.17,-78.4977 -130.593,-78.4977 C-130.593,-59.3605 -130.593,-44.9486 -130.593,-35.2619 C-130.593,-31.2455 -130.593,-28.1741 -130.593,-26.0478 Z M130.593,-104.723 C130.593,-111.81 128.112,-117.953 123.151,-123.151 C117.953,-128.112 111.81,-130.593 104.723,-130.593 C69.756,-130.593 43.5311,-130.593 26.0478,-130.593 C2.89419,-130.593 -14.471,-130.593 -26.0478,-130.593 C-26.0478,-72.473 -26.0478,-21.6769 -26.0478,21.7951 C-26.0478,65.2671 -26.0478,101.533 -26.0478,130.593 C-2.89419,130.593 14.471,130.593 26.0478,130.593 C26.0478,37.7427 26.0478,-31.9543 26.0478,-78.4977 C49.4376,-78.4977 66.9209,-78.4977 78.4977,-78.4977 C78.4977,14.3528 78.4977,84.0498 78.4977,130.593 C101.651,130.593 119.016,130.593 130.593,130.593 C130.593,26.1659 130.593,-52.2727 130.593,-104.723 Z M339.684,-104.723 C339.684,-111.81 337.203,-117.953 332.242,-123.151 C327.044,-128.112 320.901,-130.593 313.813,-130.593 C278.847,-130.593 252.622,-130.593 235.139,-130.593 C211.985,-130.593 194.62,-130.593 183.043,-130.593 C183.043,-72.473 183.043,-21.6769 183.043,21.7951 C183.043,65.2671 183.043,101.533 183.043,130.593 C206.197,130.593 223.562,130.593 235.139,130.593 C235.139,37.7427 235.139,-31.9543 235.139,-78.4977 C258.528,-78.4977 276.012,-78.4977 287.588,-78.4977 C287.588,14.3528 287.588,84.0498 287.588,130.593 C310.742,130.593 328.107,130.593 339.684,130.593 C339.684,26.1659 339.684,-52.2727 339.684,-104.723 Z M548.775,130.593 C548.775,26.1659 548.775,-52.2727 548.775,-104.723 C548.775,-111.81 546.294,-117.953 541.333,-123.151 C536.135,-128.112 529.992,-130.593 522.904,-130.593 C476.361,-130.593 441.512,-130.593 418.359,-130.593 C411.035,-130.593 404.892,-128.112 399.93,-123.151 C394.733,-117.953 392.134,-111.81 392.134,-104.723 C392.134,-72.1186 392.134,-43.5311 392.134,-18.9599 C392.134,5.37493 392.134,25.6934 392.134,41.9954 C392.134,81.4509 392.134,110.984 392.134,130.593 C415.287,130.593 432.653,130.593 444.229,130.593 C444.229,84.0498 444.229,49.2013 444.229,26.0478 C467.619,26.0478 485.103,26.0478 496.679,26.0478 C496.679,72.5911 496.679,107.44 496.679,130.593 C519.833,130.593 537.198,130.593 548.775,130.593 Z M496.679,-26.0478 C473.526,-26.0478 456.042,-26.0478 444.229,-26.0478 C444.229,-49.4376 444.229,-66.9209 444.229,-78.4977 C467.619,-78.4977 485.103,-78.4977 496.679,-78.4977 C496.679,-59.3605 496.679,-44.9486 496.679,-35.2619 C496.679,-31.2455 496.679,-28.1741 496.679,-26.0478 Z " fill="#f3804b" fill-opacity="1.00" />		</g>	</svg>